<?xml version="1.0" encoding="iso-8859-1"?>
<!-- Generator: Adobe Illustrator 18.0.0, SVG Export Plug-In . SVG Version: 6.00 Build 0)  -->
<!DOCTYPE svg PUBLIC "-//W3C//DTD SVG 1.1//EN" "http://www.w3.org/Graphics/SVG/1.1/DTD/svg11.dtd">
<svg version="1.1" id="Capa_1" xmlns="http://www.w3.org/2000/svg" xmlns:xlink="http://www.w3.org/1999/xlink" x="0px" y="0px"
	 viewBox="0 0 401.477 401.477" style="enable-background:new 0 0 401.477 401.477;" xml:space="preserve">
<g>
	<path d="M337.549,242.722c-36.783-14.417-85.37-22.357-136.811-22.357s-100.027,7.94-136.811,22.357
		C22.703,258.88,0,282.121,0,308.165s22.703,49.285,63.928,65.443c36.783,14.417,85.37,22.357,136.811,22.357
		s100.027-7.94,136.811-22.357c41.225-16.158,63.928-39.399,63.928-65.443S378.773,258.88,337.549,242.722z M326.602,345.677
		c-33.38,13.083-78.079,20.288-125.863,20.288c-47.785,0-92.483-7.205-125.863-20.288C47.195,334.828,30,320.454,30,308.165
		s17.195-26.663,44.875-37.512c33.38-13.083,78.079-20.289,125.863-20.289s92.483,7.205,125.863,20.289
		c27.68,10.849,44.875,25.223,44.875,37.512S354.281,334.828,326.602,345.677z"/>
	<path d="M67.62,227.495c7.091,4.288,16.313,2.016,20.598-5.073c4.287-7.089,2.016-16.311-5.072-20.598
		c-12.038-7.28-18.942-15.37-18.942-22.195c0-19.294,53.187-47.32,136.53-47.32c83.35,0,136.54,28.026,136.54,47.32
		c0,6.825-6.904,14.915-18.942,22.195c-7.089,4.287-9.36,13.508-5.074,20.597c2.819,4.662,7.772,7.241,12.851,7.241
		c2.643,0,5.32-0.699,7.747-2.167c27.621-16.703,33.419-35.249,33.419-47.866c0-23.128-19.064-43.705-53.682-57.94
		c-30.39-12.498-70.471-19.38-112.858-19.38s-82.467,6.882-112.854,19.38c-34.613,14.235-53.676,34.812-53.676,57.94
		C34.203,192.246,40.001,210.792,67.62,227.495z"/>
	<path d="M114.27,101.494c6.816,4.708,16.158,2.998,20.866-3.819c4.708-6.816,2.998-16.159-3.819-20.866
		c-6.135-4.237-9.653-8.723-9.653-12.307c0-4.001,4.952-10.99,18.908-17.516c15.592-7.292,37.521-11.474,60.162-11.474
		c22.646,0,44.577,4.182,60.171,11.474c13.957,6.526,18.909,13.515,18.909,17.516c0,3.584-3.521,8.068-9.658,12.303
		c-6.819,4.704-8.533,14.045-3.829,20.865c2.91,4.219,7.595,6.484,12.36,6.484c2.937,0,5.904-0.861,8.504-2.654
		c18.698-12.899,22.623-27.239,22.623-36.997c0-17.903-12.856-33.775-36.201-44.692c-19.718-9.22-45.601-14.298-72.879-14.298
		c-27.274,0-53.154,5.078-72.871,14.299c-23.344,10.917-36.199,26.789-36.199,44.691C91.663,74.256,95.585,88.591,114.27,101.494z"
		/>
</g>
<g>
</g>
<g>
</g>
<g>
</g>
<g>
</g>
<g>
</g>
<g>
</g>
<g>
</g>
<g>
</g>
<g>
</g>
<g>
</g>
<g>
</g>
<g>
</g>
<g>
</g>
<g>
</g>
<g>
</g>
</svg>
