<?xml version="1.0" encoding="iso-8859-1"?>
<!-- Generator: Adobe Illustrator 18.0.0, SVG Export Plug-In . SVG Version: 6.00 Build 0)  -->
<!DOCTYPE svg PUBLIC "-//W3C//DTD SVG 1.1//EN" "http://www.w3.org/Graphics/SVG/1.1/DTD/svg11.dtd">
<svg version="1.1" id="Capa_1" xmlns="http://www.w3.org/2000/svg" xmlns:xlink="http://www.w3.org/1999/xlink" x="0px" y="0px"
	 viewBox="0 0 450.525 450.525" style="enable-background:new 0 0 450.525 450.525;" xml:space="preserve">
<g>
	<path d="M359.108,127.589L235.913,4.394C233.1,1.581,229.285,0,225.307,0s-7.793,1.581-10.606,4.394L91.505,127.589
		c-35.74,35.739-55.422,83.258-55.422,133.801s19.683,98.062,55.423,133.801c36.894,36.894,85.339,55.338,133.801,55.333
		c48.45-0.004,96.917-18.449,133.801-55.333C432.887,321.413,432.887,201.367,359.108,127.589z M337.895,373.979
		c-62.082,62.081-163.095,62.081-225.176,0h0c-62.081-62.082-62.081-163.095,0-225.177L225.307,36.213l112.589,112.588
		c30.073,30.074,46.635,70.058,46.635,112.588S367.968,343.905,337.895,373.979z"/>
	<path d="M235.913,216.526c-5.858-5.857-15.355-5.858-21.213,0l-17.129,17.129c-15.292,15.293-15.292,40.178,0.001,55.472
		c7.408,7.408,17.258,11.488,27.735,11.488s20.327-4.08,27.735-11.489c7.409-7.408,11.489-17.258,11.489-27.735
		s-4.08-20.327-11.489-27.736L235.913,216.526z M231.829,267.912c-0.668,0.668-2.703,2.702-6.522,2.702
		c-3.821,0-5.854-2.034-6.522-2.701c-3.597-3.597-3.597-9.449,0-13.045l6.522-6.522l6.522,6.522
		c0.668,0.668,2.702,2.703,2.702,6.523C234.531,265.21,232.497,267.243,231.829,267.912z"/>
	<path d="M288.397,198.299l-52.484-52.484c-5.857-5.858-15.355-5.858-21.213,0l-52.484,52.484
		c-16.83,16.83-26.099,39.236-26.099,63.091s9.269,46.261,26.099,63.092c16.853,16.852,39.258,26.132,63.09,26.132
		c23.833,0,46.238-9.281,63.091-26.134c16.853-16.852,26.133-39.258,26.133-63.09C314.531,237.558,305.25,215.151,288.397,198.299z
		 M267.184,303.267c-11.187,11.186-26.059,17.347-41.878,17.347s-30.691-6.16-41.877-17.346c-23.092-23.092-23.092-60.665,0-83.756
		l41.878-41.877l41.877,41.877c11.186,11.187,17.347,26.059,17.347,41.878S278.37,292.081,267.184,303.267z"/>
	<path d="M323.752,162.944l-87.839-87.84c-2.813-2.813-6.628-4.394-10.606-4.394s-7.793,1.581-10.606,4.394l-87.839,87.84
		c-26.296,26.296-40.778,61.258-40.778,98.446c0,37.188,14.482,72.15,40.778,98.446c26.296,26.296,61.258,40.778,98.446,40.778
		s72.15-14.482,98.446-40.778c26.296-26.296,40.778-61.258,40.778-98.446S350.049,189.24,323.752,162.944z M302.539,338.623
		c-20.629,20.63-48.058,31.991-77.232,31.991s-56.603-11.361-77.233-31.991c-20.63-20.63-31.991-48.059-31.991-77.233
		c0-29.174,11.361-56.603,31.991-77.233l77.233-77.233l77.233,77.233c20.63,20.63,31.991,48.059,31.991,77.233
		S323.169,317.992,302.539,338.623z"/>
</g>
<g>
</g>
<g>
</g>
<g>
</g>
<g>
</g>
<g>
</g>
<g>
</g>
<g>
</g>
<g>
</g>
<g>
</g>
<g>
</g>
<g>
</g>
<g>
</g>
<g>
</g>
<g>
</g>
<g>
</g>
</svg>
